PathFileType	4	(X/Y/Z)	/Users/visionmauri/1_8_1_f_Sports2D/1_8_1_f_Sports2D_px_person00.trc
DataRate	CameraRate	NumFrames	NumMarkers	Units	OrigDataRate	OrigDataStartFrame	OrigNumFrames
30.0	30.0	8	22	m	30.0	268	358
Frame#	Time	Hip			RHip			RKnee			RAnkle			RBigToe			RSmallToe			RHeel			LHip			LKnee			LAnkle			LBigToe			LSmallToe			LHeel			Neck			Head			Nose			RShoulder			RElbow			RWrist			LShoulder			LElbow			LWrist			
		X1	Y1	Z1	X2	Y2	Z2	X3	Y3	Z3	X4	Y4	Z4	X5	Y5	Z5	X6	Y6	Z6	X7	Y7	Z7	X8	Y8	Z8	X9	Y9	Z9	X10	Y10	Z10	X11	Y11	Z11	X12	Y12	Z12	X13	Y13	Z13	X14	Y14	Z14	X15	Y15	Z15	X16	Y16	Z16	X17	Y17	Z17	X18	Y18	Z18	X19	Y19	Z19	X20	Y20	Z20	X21	Y21	Z21	X22	Y22	Z22
268	8.958356676003735	490.9003643684292	872.8600174281077	0.0	437.26588140953726	878.7385423084584	0.0	428.1066517134949	1093.2681366869756	0.0	444.52109895463616	1230.4076581252677	0.0	456.2621629509749	1322.9712878477196	0.0	425.16600621610445	1311.9389583527475	0.0	453.2100407546959	1242.8330515133132	0.0	544.2649577307016	876.2650391753222	0.0	538.8997386468785	1071.0687673947607	0.0	536.1530671993258	1298.7173529859356	0.0	517.0901663777657	1370.9690354110132	0.0	546.9820223129317	1366.9084970998317	0.0	528.6269878451506	1323.8726006168463	0.0	505.5162569964568	581.6093958962502	0.0	521.2856669982663	435.26653649661876	0.0	516.1164004074827	547.9975472592718	0.0	400.9213209960583	600.7750323414638	0.0	355.59027561474534	728.5598148091808	0.0	329.1182589969176	841.884218430712	0.0	605.2180689569276	612.3032118361692	0.0	633.752785394927	750.85043224157	0.0	646.2559461979115	805.7170092971837	0.0
269	8.991783380018674	492.5503200397859	873.5629754294444	0.0	437.50394686020127	881.4680682539462	0.0	424.9320803808698	1094.9188768462027	0.0	444.60372515517145	1225.0027921455248	0.0	455.7179131219749	1322.7696681845525	0.0	424.4675294799742	1310.8607030567475	0.0	453.1425359817663	1234.1300567327412	0.0	546.0893893781724	880.1047284439053	0.0	539.3958439140298	1076.3886960367581	0.0	536.5249633907923	1300.9593654043351	0.0	515.9753311629339	1373.5103889880468	0.0	546.2371217597879	1369.9294999606666	0.0	529.1050609714687	1329.2806270612625	0.0	508.06674109689845	579.0530510247784	0.0	523.4373258844716	434.44949053549396	0.0	517.5220631074169	546.7161996215908	0.0	401.8855631000033	600.3008103038302	0.0	358.07079591903846	727.8493359815037	0.0	328.9347331534167	840.8161583175493	0.0	608.3127915204325	611.5405405075038	0.0	637.4527900157544	749.4876961281425	0.0	652.9196191372547	844.8523454823121	0.0
270	9.025210084033613	493.6945484657784	874.3983396653546	0.0	437.8439117298371	883.7266879088162	0.0	422.74093231654854	1095.172783046841	0.0	444.77047653870454	1223.37594410474	0.0	454.69401571724643	1324.0755231636774	0.0	423.3023476343264	1311.3804846926614	0.0	453.208211255544	1231.4147777395942	0.0	548.0522108910345	883.6546951846989	0.0	540.6499893837746	1080.7229835371268	0.0	537.4094515010974	1301.7271007661432	0.0	515.7685465464365	1375.432057384764	0.0	546.7575414586198	1372.2921059839653	0.0	529.2557643184699	1332.2806472242078	0.0	510.92899201936035	576.562259702064	0.0	524.6559472041829	432.75346613635094	0.0	518.7574547526068	544.7396297026525	0.0	402.98562424046605	599.3455126894166	0.0	359.84643646859564	727.6387016623357	0.0	329.07664317888504	840.0144029079986	0.0	611.2783159782172	610.7592480254095	0.0	641.0740919888972	748.0028062156474	0.0	657.604019346058	868.4421369163073	0.0
271	9.058636788048553	494.26034795903144	874.6819838514515	0.0	437.8959201061389	883.0489540578283	0.0	421.6945973290359	1093.9637366758525	0.0	444.62640437223996	1226.7546825597863	0.0	453.4559599554706	1329.807886408934	0.0	422.07272094304136	1316.3533990913113	0.0	453.2774569827102	1236.078861991699	0.0	549.3998893636369	883.1257835869715	0.0	542.4521185375088	1081.4310164895417	0.0	538.0525766564033	1300.8740332281761	0.0	515.4935563404769	1377.0959640597769	0.0	547.097394118199	1373.400818934465	0.0	528.8406702564058	1330.7070879152961	0.0	513.3111145925878	574.9394759578082	0.0	524.8623643450022	428.0153475600309	0.0	519.4416685718503	541.7592274430426	0.0	404.57192861901586	597.8291174427496	0.0	360.789438474112	727.093534696721	0.0	329.47436526142104	839.986648762586	0.0	614.0034759499706	608.6925052571278	0.0	644.2155756118261	746.9107073905386	0.0	660.0706708479507	872.7714585585628	0.0
272	9.092063492063492	494.5850927896165	873.7094585196376	0.0	437.65146453777146	880.2487760780281	0.0	421.5763118278221	1091.7130742070692	0.0	444.2657882182886	1235.9526272307542	0.0	451.72222567854277	1340.2425407597648	0.0	420.2950430717181	1325.896133561148	0.0	453.2227310365136	1248.497469986205	0.0	550.0834252274318	880.3948711999035	0.0	543.3685256068786	1079.3241426797895	0.0	537.7302400646581	1299.3890533907017	0.0	514.395165205102	1376.738013957959	0.0	547.0953045923479	1371.8105803935136	0.0	528.162199261885	1326.8015615761644	0.0	514.6533131844225	572.914485210512	0.0	524.4770525813857	422.7284397648663	0.0	519.6626057729815	538.636701146732	0.0	406.1054276162275	595.8463636358288	0.0	361.4209984757758	726.6821575258163	0.0	329.7455132803743	840.5134905862942	0.0	616.383275768285	606.5313996738171	0.0	646.8232573660894	747.0771013396748	0.0	661.7995600060594	870.6415344960009	0.0
273	9.125490196078431	494.4853454169689	872.2001647145028	0.0	437.63792777786597	878.0770949426013	0.0	422.3226813530536	1089.6779510130698	0.0	443.7515970596144	1250.7977847921693	0.0	449.29002628407886	1353.6627237552696	0.0	417.61109889944504	1338.684445555386	0.0	452.727587008507	1267.373878727454	0.0	550.769116161293	879.7369619947699	0.0	542.7342151993548	1078.117834611192	0.0	536.3709563173283	1297.927615328932	0.0	513.7371383372036	1374.6270998030675	0.0	547.6864565838126	1368.6500285969748	0.0	527.2052720715706	1324.0605217042425	0.0	515.0642493423925	570.269685280394	0.0	524.0984735192508	419.84710788285105	0.0	519.7134983552396	536.4039061248145	0.0	407.1274764611618	593.0918925189873	0.0	362.4068949977492	726.5585489964894	0.0	329.67857221300704	841.0152005039362	0.0	618.169999587577	605.7096349264666	0.0	649.209005061443	748.6110953322968	0.0	663.800338205543	870.1495742194237	0.0
274	9.15891690009337	493.4996933229918	871.4441803145785	0.0	437.5615302477587	877.1275209588409	0.0	423.72644391908835	1088.2310125612041	0.0	442.87630625768105	1270.0550973361367	0.0	446.2467590145748	1369.5823414895485	0.0	414.0448884975464	1354.935857665119	0.0	451.4890432255236	1290.5084885665487	0.0	551.3411558898413	880.8645323096198	0.0	541.6979047300291	1079.7721388650953	0.0	534.6978793984863	1296.6606624667827	0.0	514.8934068041261	1374.5839275828407	0.0	548.6796728501324	1367.881753321026	0.0	525.8457206571961	1323.7098946969113	0.0	515.0748596262695	568.5310509913484	0.0	523.66186133709	418.2806048815525	0.0	519.5855076343529	534.9299183942236	0.0	407.6566452618463	590.1508299586765	0.0	363.4764573336964	725.8124210127053	0.0	329.29593298039055	841.2794019762673	0.0	619.1554356776961	604.7362305711295	0.0	650.7601551085501	750.7424744979485	0.0	665.4614472638282	871.1934072202287	0.0
275	9.19234360410831	491.9837537037188	872.3680052473552	0.0	436.2060730236069	876.6639157408819	0.0	425.1915999104314	1087.6172424338733	0.0	441.6007999287663	1291.778478191577	0.0	442.8967467524946	1387.2148232756642	0.0	409.8938270943647	1374.121401111047	0.0	449.73737108394533	1315.9475349352454	0.0	550.9494282073908	881.748458803361	0.0	541.2250684813265	1083.5992824473583	0.0	533.7366361433373	1296.2482419766757	0.0	517.322174683268	1378.2375697041477	0.0	549.3082234738771	1370.8977018998958	0.0	524.7782536784156	1325.0353157445466	0.0	515.1236162191436	567.8246596469908	0.0	522.5100714075079	416.02658231976824	0.0	519.2521468555747	533.5178197734758	0.0	407.5324099561629	588.500703917409	0.0	363.62241054057847	724.4352937780968	0.0	328.66009270209963	841.6465470395977	0.0	619.3479287766531	601.8291147472951	0.0	651.0999809178561	752.3433173030343	0.0	666.2500305053493	872.1718085236288	0.0
